# xmcd
#
# Track frame offsets:
#	300
#	20470
#	36626
#	53105
#	73639
#	89846
#	106192
#	123766
#	142900
#	162189
#	181616
#
# Disc length: 2711 seconds
#
# Revision: 1
# Processed by: cddbd v1.5.1PL2 Copyright (c) Steve Scherf et al.
# Submitted via: audiograbber 1.83.01
#
DISCID=900a930b
DTITLE=Lifeless Riot - Lifeless Riot
DYEAR=2006
DGENRE=Rock
TTITLE0=Let It Heal
TTITLE1=Through It All
TTITLE2=Whenever I Can
TTITLE3=Precious Memories
TTITLE4=Escape
TTITLE5=Lonesome Road
TTITLE6=Life
TTITLE7=State Of Mind
TTITLE8=Straight For The Horizon
TTITLE9=What I Want
TTITLE10=Uncharted Waters
EXTD=UPC 634479295676
EXTT0=US-FK3-06-10001\n
EXTT1=US-FK3-06-10002
EXTT2=US-FK3-06-10003
EXTT3=US-FK3-06-10004
EXTT4=US-FK3-06-10005
EXTT5=US-FK3-06-10006
EXTT6=US-FK3-06-10007
EXTT7=US-FK3-06-10008
EXTT8=US-FK3-06-10009
EXTT9=US-FK3-06-10010
EXTT10=US-FK3-06-10011
PLAYORDER=
